<?xml version="1.0" standalone="no"?>
<!DOCTYPE svg PUBLIC "-//W3C//DTD SVG 20010904//EN"
 "http://www.w3.org/TR/2001/REC-SVG-20010904/DTD/svg10.dtd">
<svg version="1.0" xmlns="http://www.w3.org/2000/svg"
 width="7.2rem" height="3.1rem" viewBox="0 0 352.000000 140.000000"
 preserveAspectRatio="xMidYMid meet">

<g transform="translate(0.000000,140.000000) scale(0.100000,-0.100000)"
fill="#ffffff" stroke="none">
<path d="M1653 1393 c9 -2 25 -2 35 0 9 3 1 5 -18 5 -19 0 -27 -2 -17 -5z"/>
<path d="M101 1230 c-16 -17 -31 -44 -35 -61 -3 -18 -6 -249 -6 -516 l0 -484
63 3 62 3 3 478 c1 280 6 477 11 477 5 0 47 -53 92 -117 46 -65 89 -124 96
-131 7 -7 13 -17 13 -21 0 -4 9 -17 20 -28 10 -12 35 -45 54 -75 97 -146 265
-373 277 -373 12 0 14 71 17 438 l2 437 -70 0 -70 0 0 -247 c-1 -222 -2 -246
-16 -228 -8 11 -20 27 -27 35 -7 8 -22 31 -34 50 -12 20 -31 47 -43 59 -11 13
-20 27 -20 31 0 3 -8 15 -18 26 -9 10 -26 33 -36 49 -39 61 -130 181 -155 202
-21 18 -39 22 -88 23 -57 0 -65 -3 -92 -30z"/>
<path d="M790 791 c0 -325 -3 -472 -11 -476 -12 -8 -35 14 -70 67 -42 64 -262
373 -269 378 -3 3 -16 22 -29 43 -13 21 -28 43 -35 50 -6 6 -19 25 -29 40 -10
16 -25 36 -33 45 -8 9 -29 39 -46 67 -18 27 -37 49 -43 47 -6 -1 -10 -156 -10
-439 l0 -438 63 -3 62 -3 0 246 c0 147 4 245 9 243 5 -2 75 -97 156 -213 81
-116 164 -227 185 -247 36 -35 44 -38 98 -38 48 0 62 4 79 23 32 34 43 61 32
78 -5 8 -9 226 -9 507 l0 492 -50 0 -50 0 0 -469z"/>
<path d="M930 731 c0 -291 -3 -537 -6 -545 -6 -15 18 -16 247 -14 l254 3 3 59
c2 41 -1 62 -10 67 -7 5 -95 9 -196 9 l-182 0 2 413 3 412 183 3 182 2 0 60 0
60 -240 0 -240 0 0 -529z"/>
<path d="M1430 1138 c0 -68 -5 -130 -10 -138 -7 -11 -10 2 -10 43 l0 57 -165
0 c-91 0 -168 0 -172 0 -5 0 -8 -78 -8 -172 l0 -173 158 -3 157 -3 0 66 0 65
-95 0 -95 0 0 45 0 45 115 0 115 0 1 -137 c2 -345 6 -378 47 -465 68 -139 191
-203 377 -195 117 5 184 21 237 59 14 10 27 8 70 -13 84 -42 118 -49 223 -49
141 0 232 33 305 110 41 43 54 68 89 170 6 19 14 111 18 205 6 160 7 167 20
130 18 -52 85 -120 150 -150 41 -20 68 -25 130 -25 96 -1 146 -22 151 -62 3
-22 -3 -32 -30 -48 -30 -18 -50 -20 -225 -20 l-193 0 0 -65 0 -65 216 0 c236
0 253 3 313 60 49 47 65 143 36 213 -15 36 -67 87 -90 87 -7 0 -15 5 -17 12
-3 7 -39 15 -94 19 -123 10 -147 17 -187 50 -49 40 -67 81 -67 151 0 45 5 68
22 91 59 86 75 90 323 97 l210 5 3 63 3 63 -243 -3 c-237 -3 -244 -4 -286 -28
-40 -23 -100 -82 -129 -126 -10 -16 -12 -3 -12 69 l-1 87 -64 0 -64 0 -4 -367
c-3 -280 -7 -375 -17 -398 -8 -16 -20 -43 -27 -60 -17 -39 -70 -88 -114 -106
-52 -21 -205 -19 -252 4 -41 20 -98 83 -98 109 0 9 -4 20 -10 23 -5 3 -10 16
-10 28 -1 24 -26 63 -32 50 -3 -4 -11 -28 -18 -53 -20 -64 -55 -114 -103 -146
-39 -26 -49 -28 -147 -28 -91 0 -110 3 -145 23 -56 32 -69 46 -92 94 -46 96
-46 99 -51 470 l-4 357 -54 0 -54 0 0 -122z"/>
<path d="M1578 958 c-3 -380 -2 -396 22 -453 26 -61 52 -94 102 -128 37 -24
49 -27 130 -27 140 0 186 34 233 173 18 55 18 55 17 430 l-2 307 -59 0 -60 0
-3 -342 c-3 -341 -3 -343 -26 -376 -44 -61 -103 -77 -158 -43 -66 40 -68 49
-72 424 l-3 337 -60 0 -59 0 -2 -302z"/>
<path d="M2120 916 c0 -219 4 -347 10 -351 6 -3 10 -15 10 -25 0 -26 42 -103
72 -133 45 -45 81 -57 168 -57 60 0 90 5 119 19 45 23 93 75 108 117 31 88 33
108 33 437 l0 337 -65 0 -65 0 0 -317 c0 -325 -3 -356 -41 -414 -19 -29 -86
-54 -117 -45 -35 11 -72 46 -87 83 -12 29 -15 97 -15 364 l0 329 -65 0 -65 0
0 -344z"/>
<path d="M3019 1089 c-98 -57 -113 -198 -31 -280 35 -34 42 -37 117 -43 109
-10 128 -14 161 -31 16 -8 34 -15 40 -15 17 0 62 -52 77 -90 34 -83 -14 -219
-98 -279 l-49 -36 -221 -5 -220 -5 -3 -68 -3 -67 220 0 c140 0 230 4 248 11
107 43 172 94 204 161 9 18 22 46 30 62 9 19 14 65 14 131 0 96 -2 106 -33
168 -21 41 -52 83 -80 107 -42 38 -60 48 -135 79 -15 6 -58 11 -95 11 -69 1
-102 14 -102 43 0 24 22 27 203 27 95 0 178 4 185 9 9 5 12 26 10 67 l-3 59
-200 2 c-188 3 -202 2 -236 -18z"/>
<path d="M1072 702 c-9 -7 -12 -49 -10 -178 l3 -169 180 0 180 0 0 60 0 60
-117 3 -118 3 0 44 0 44 93 3 92 3 0 65 0 65 -145 2 c-80 2 -151 -1 -158 -5z"/>
<path d="M2490 70 c-6 -11 -8 -20 -6 -20 3 0 10 9 16 20 6 11 8 20 6 20 -3 0
-10 -9 -16 -20z"/>
</g>
</svg>
